<svg width="120" height="122" viewBox="0 0 120 122" fill="none" xmlns="http://www.w3.org/2000/svg">
<path d="M74.8999 1.73673C78.0882 -1.91784 84.0928 0.615412 83.6626 5.4336L80.5122 40.7169C80.3198 42.8717 81.5408 44.9006 83.5366 45.7426L116.217 59.5301C120.68 61.4128 120.101 67.8956 115.372 68.9907L80.7448 77.0096C78.6301 77.4993 77.0681 79.2897 76.8757 81.4445L73.7253 116.728C73.2951 121.546 66.9328 123.019 64.4406 118.878L46.1902 88.5506C45.0756 86.6985 42.8892 85.7761 40.7745 86.2658L6.14728 94.2847C1.41868 95.3797 -1.93458 89.8075 1.25373 86.1529L24.6016 59.3907C26.0275 57.7563 26.2382 55.3958 25.1237 53.5437L6.87322 23.2163C4.38099 19.0749 8.67085 14.1577 13.1336 16.0404L45.8138 29.8278C47.8096 30.6698 50.1262 30.1334 51.5521 28.499L74.8999 1.73673Z" fill="#D5D0CB"/>
</svg>
