<svg width="200" height="200" viewBox="0 0 200 200" fill="none" xmlns="http://www.w3.org/2000/svg">
<g clip-path="url(#clip0_244_241)">
<g filter="url(#filter0_f_244_241)">
<path d="M24.5206 28.789C22.2199 29.7364 19.7766 29.9982 17.701 29.6775C15.623 29.3563 13.9672 28.465 13.1112 27.142C12.2553 25.8191 12.3036 24.226 13.1791 22.6885C14.0536 21.1529 15.7363 19.7155 18.0369 18.768C20.3374 17.8207 22.7802 17.5592 24.8556 17.8799C26.9337 18.201 28.5894 19.0923 29.4454 20.4153C30.3014 21.7383 30.253 23.3313 29.3775 24.8688C28.5031 26.4043 26.821 27.8415 24.5206 28.789Z" fill="#DBBCBC" stroke="#F6D9D9"/>
<path d="M26.8897 29.6803C27.6958 32.0148 29.1144 34.0018 30.7302 35.3307C32.3475 36.6606 34.1192 37.3026 35.6903 37.062C37.2615 36.8214 38.435 35.7284 39.0174 34.0614C39.5992 32.3961 39.571 30.1959 38.7649 27.8615C37.9588 25.5273 36.5412 23.5406 34.9257 22.2119C33.3083 20.8818 31.5358 20.2401 29.9647 20.4807C28.3935 20.7214 27.2209 21.8141 26.6385 23.4811C26.0567 25.1464 26.0837 27.3459 26.8897 29.6803Z" fill="#DBBCBC" stroke="#F6D9D9"/>
<path d="M36.568 26.3471C34 25.2436 31.9445 23.6782 30.6906 22.0644C29.4246 20.4348 29.044 18.8593 29.5631 17.6513C30.0822 16.4435 31.4871 15.6351 33.5407 15.4321C35.5745 15.2311 38.1248 15.645 40.6928 16.7486C43.2607 17.8521 45.3155 19.4171 46.5693 21.0309C47.8355 22.6605 48.2159 24.236 47.6969 25.444C47.1778 26.6519 45.7729 27.4602 43.7192 27.6632C41.6855 27.8642 39.1359 27.4505 36.568 26.3471Z" fill="#DBBCBC" stroke="#F6D9D9"/>
<path d="M24.1798 9.65289C26.7478 10.7564 28.8033 12.3218 30.0572 13.9356C31.3232 15.5652 31.7038 17.1407 31.1847 18.3487C30.6656 19.5565 29.2607 20.3649 27.2071 20.5679C25.1733 20.7689 22.623 20.355 20.055 19.2514C17.4872 18.1479 15.4323 16.5829 14.1785 14.9691C12.9123 13.3395 12.5319 11.764 13.0509 10.556C13.57 9.34807 14.9749 8.53983 17.0286 8.33681C19.0623 8.13581 21.6119 8.54945 24.1798 9.65289Z" fill="#DBBCBC" stroke="#F6D9D9"/>
<path d="M37.2488 16.8425C35.4437 21.0429 31.3309 23.1001 28.1651 21.7399C24.9993 20.3794 23.6604 15.9794 25.4655 11.7788C27.2707 7.57846 31.384 5.5223 34.5497 6.8827C37.7152 8.24322 39.0537 12.6421 37.2488 16.8425Z" fill="#DBBCBC" stroke="#F6D9D9"/>
</g>
<g filter="url(#filter1_f_244_241)">
<path d="M34.5206 129.789C32.2199 130.736 29.7766 130.998 27.701 130.677C25.623 130.356 23.9672 129.465 23.1112 128.142C22.2553 126.819 22.3036 125.226 23.1791 123.689C24.0536 122.153 25.7363 120.715 28.0369 119.768C30.3374 118.821 32.7802 118.559 34.8556 118.88C36.9337 119.201 38.5894 120.092 39.4454 121.415C40.3014 122.738 40.253 124.331 39.3775 125.869C38.5031 127.404 36.821 128.842 34.5206 129.789Z" fill="#DBBCBC" stroke="#F6D9D9"/>
<path d="M36.8897 130.68C37.6958 133.015 39.1144 135.002 40.7302 136.331C42.3475 137.661 44.1192 138.303 45.6903 138.062C47.2615 137.821 48.435 136.728 49.0174 135.061C49.5992 133.396 49.571 131.196 48.7649 128.862C47.9588 126.527 46.5412 124.541 44.9257 123.212C43.3083 121.882 41.5358 121.24 39.9647 121.481C38.3935 121.721 37.2209 122.814 36.6385 124.481C36.0567 126.146 36.0837 128.346 36.8897 130.68Z" fill="#DBBCBC" stroke="#F6D9D9"/>
<path d="M46.568 127.347C44 126.244 41.9445 124.678 40.6906 123.064C39.4246 121.435 39.044 119.859 39.5631 118.651C40.0822 117.443 41.4871 116.635 43.5407 116.432C45.5745 116.231 48.1248 116.645 50.6928 117.749C53.2607 118.852 55.3155 120.417 56.5693 122.031C57.8355 123.661 58.2159 125.236 57.6969 126.444C57.1778 127.652 55.7729 128.46 53.7192 128.663C51.6855 128.864 49.1359 128.451 46.568 127.347Z" fill="#DBBCBC" stroke="#F6D9D9"/>
<path d="M34.1798 110.653C36.7478 111.756 38.8033 113.322 40.0572 114.936C41.3232 116.565 41.7038 118.141 41.1847 119.349C40.6656 120.557 39.2607 121.365 37.2071 121.568C35.1733 121.769 32.623 121.355 30.055 120.251C27.4872 119.148 25.4323 117.583 24.1785 115.969C22.9123 114.339 22.5319 112.764 23.0509 111.556C23.57 110.348 24.9749 109.54 27.0286 109.337C29.0623 109.136 31.6119 109.549 34.1798 110.653Z" fill="#DBBCBC" stroke="#F6D9D9"/>
<path d="M47.2488 117.842C45.4437 122.043 41.3309 124.1 38.1651 122.74C34.9993 121.379 33.6604 116.979 35.4655 112.779C37.2707 108.578 41.384 106.522 44.5497 107.883C47.7152 109.243 49.0537 113.642 47.2488 117.842Z" fill="#DBBCBC" stroke="#F6D9D9"/>
</g>
<g filter="url(#filter2_f_244_241)">
<path d="M154.521 185.789C152.22 186.736 149.777 186.998 147.701 186.677C145.623 186.356 143.967 185.465 143.111 184.142C142.255 182.819 142.304 181.226 143.179 179.689C144.054 178.153 145.736 176.715 148.037 175.768C150.337 174.821 152.78 174.559 154.856 174.88C156.934 175.201 158.589 176.092 159.445 177.415C160.301 178.738 160.253 180.331 159.378 181.869C158.503 183.404 156.821 184.842 154.521 185.789Z" fill="#DBBCBC" stroke="#F6D9D9"/>
<path d="M156.89 186.68C157.696 189.015 159.114 191.002 160.73 192.331C162.348 193.661 164.119 194.303 165.69 194.062C167.261 193.821 168.435 192.728 169.017 191.061C169.599 189.396 169.571 187.196 168.765 184.862C167.959 182.527 166.541 180.541 164.926 179.212C163.308 177.882 161.536 177.24 159.965 177.481C158.394 177.721 157.221 178.814 156.639 180.481C156.057 182.146 156.084 184.346 156.89 186.68Z" fill="#DBBCBC" stroke="#F6D9D9"/>
<path d="M166.568 183.347C164 182.244 161.945 180.678 160.691 179.064C159.425 177.435 159.044 175.859 159.563 174.651C160.082 173.443 161.487 172.635 163.541 172.432C165.574 172.231 168.125 172.645 170.693 173.749C173.261 174.852 175.315 176.417 176.569 178.031C177.835 179.661 178.216 181.236 177.697 182.444C177.178 183.652 175.773 184.46 173.719 184.663C171.686 184.864 169.136 184.451 166.568 183.347Z" fill="#DBBCBC" stroke="#F6D9D9"/>
<path d="M154.18 166.653C156.748 167.756 158.803 169.322 160.057 170.936C161.323 172.565 161.704 174.141 161.185 175.349C160.666 176.557 159.261 177.365 157.207 177.568C155.173 177.769 152.623 177.355 150.055 176.251C147.487 175.148 145.432 173.583 144.178 171.969C142.912 170.339 142.532 168.764 143.051 167.556C143.57 166.348 144.975 165.54 147.029 165.337C149.062 165.136 151.612 165.549 154.18 166.653Z" fill="#DBBCBC" stroke="#F6D9D9"/>
<path d="M167.249 173.842C165.444 178.043 161.331 180.1 158.165 178.74C154.999 177.379 153.66 172.979 155.466 168.779C157.271 164.578 161.384 162.522 164.55 163.883C167.715 165.243 169.054 169.642 167.249 173.842Z" fill="#DBBCBC" stroke="#F6D9D9"/>
</g>
<g filter="url(#filter3_f_244_241)">
<path d="M130.521 66.789C128.22 67.7364 125.777 67.9982 123.701 67.6775C121.623 67.3563 119.967 66.465 119.111 65.142C118.255 63.8191 118.304 62.226 119.179 60.6885C120.054 59.1529 121.736 57.7155 124.037 56.768C126.337 55.8207 128.78 55.5592 130.856 55.8799C132.934 56.201 134.589 57.0923 135.445 58.4153C136.301 59.7383 136.253 61.3313 135.378 62.8688C134.503 64.4043 132.821 65.8415 130.521 66.789Z" fill="#DBBCBC" stroke="#F6D9D9"/>
<path d="M132.89 67.6803C133.696 70.0148 135.114 72.0018 136.73 73.3307C138.348 74.6606 140.119 75.3026 141.69 75.062C143.261 74.8214 144.435 73.7284 145.017 72.0614C145.599 70.3961 145.571 68.1959 144.765 65.8615C143.959 63.5273 142.541 61.5406 140.926 60.2119C139.308 58.8818 137.536 58.2401 135.965 58.4807C134.394 58.7214 133.221 59.8141 132.639 61.4811C132.057 63.1464 132.084 65.3459 132.89 67.6803Z" fill="#DBBCBC" stroke="#F6D9D9"/>
<path d="M142.568 64.3471C140 63.2436 137.945 61.6782 136.691 60.0644C135.425 58.4348 135.044 56.8593 135.563 55.6513C136.082 54.4435 137.487 53.6351 139.541 53.4321C141.574 53.2311 144.125 53.645 146.693 54.7486C149.261 55.8521 151.315 57.4171 152.569 59.0309C153.835 60.6605 154.216 62.236 153.697 63.444C153.178 64.6519 151.773 65.4602 149.719 65.6632C147.686 65.8642 145.136 65.4505 142.568 64.3471Z" fill="#DBBCBC" stroke="#F6D9D9"/>
<path d="M130.18 47.6529C132.748 48.7564 134.803 50.3218 136.057 51.9356C137.323 53.5652 137.704 55.1407 137.185 56.3487C136.666 57.5565 135.261 58.3649 133.207 58.5679C131.173 58.7689 128.623 58.355 126.055 57.2514C123.487 56.1479 121.432 54.5829 120.178 52.9691C118.912 51.3395 118.532 49.764 119.051 48.556C119.57 47.3481 120.975 46.5398 123.029 46.3368C125.062 46.1358 127.612 46.5495 130.18 47.6529Z" fill="#DBBCBC" stroke="#F6D9D9"/>
<path d="M143.249 54.8425C141.444 59.0429 137.331 61.1001 134.165 59.7399C130.999 58.3794 129.66 53.9794 131.466 49.7788C133.271 45.5785 137.384 43.5223 140.55 44.8827C143.715 46.2432 145.054 50.6421 143.249 54.8425Z" fill="#DBBCBC" stroke="#F6D9D9"/>
</g>
</g>
<defs>
<filter id="filter0_f_244_241" x="5.65898" y="-0.337842" width="49.0639" height="44.2282" filterUnits="userSpaceOnUse" color-interpolation-filters="sRGB">
<feFlood flood-opacity="0" result="BackgroundImageFix"/>
<feBlend mode="normal" in="SourceGraphic" in2="BackgroundImageFix" result="shape"/>
<feGaussianBlur stdDeviation="3.15" result="effect1_foregroundBlur_244_241"/>
</filter>
<filter id="filter1_f_244_241" x="15.659" y="100.662" width="49.0639" height="44.2282" filterUnits="userSpaceOnUse" color-interpolation-filters="sRGB">
<feFlood flood-opacity="0" result="BackgroundImageFix"/>
<feBlend mode="normal" in="SourceGraphic" in2="BackgroundImageFix" result="shape"/>
<feGaussianBlur stdDeviation="3.15" result="effect1_foregroundBlur_244_241"/>
</filter>
<filter id="filter2_f_244_241" x="135.659" y="156.662" width="49.0639" height="44.2282" filterUnits="userSpaceOnUse" color-interpolation-filters="sRGB">
<feFlood flood-opacity="0" result="BackgroundImageFix"/>
<feBlend mode="normal" in="SourceGraphic" in2="BackgroundImageFix" result="shape"/>
<feGaussianBlur stdDeviation="3.15" result="effect1_foregroundBlur_244_241"/>
</filter>
<filter id="filter3_f_244_241" x="111.659" y="37.6622" width="49.0639" height="44.2282" filterUnits="userSpaceOnUse" color-interpolation-filters="sRGB">
<feFlood flood-opacity="0" result="BackgroundImageFix"/>
<feBlend mode="normal" in="SourceGraphic" in2="BackgroundImageFix" result="shape"/>
<feGaussianBlur stdDeviation="3.15" result="effect1_foregroundBlur_244_241"/>
</filter>
<clipPath id="clip0_244_241">
<rect width="200" height="200" fill="white"/>
</clipPath>
</defs>
</svg>
