<svg width="50" height="45" viewBox="0 0 50 45" fill="none" xmlns="http://www.w3.org/2000/svg">
<g filter="url(#filter0_f_54_134)">
<path d="M19.5206 29.7889C17.2199 30.7364 14.7766 30.9981 12.701 30.6774C10.623 30.3562 8.96722 29.465 8.11123 28.142C7.25527 26.819 7.30362 25.2259 8.17909 23.6885C9.05355 22.1528 10.7363 20.7154 13.0369 19.7679C15.3374 18.8206 17.7802 18.5591 19.8556 18.8798C21.9337 19.2009 23.5894 20.0922 24.4454 21.4152C25.3014 22.7382 25.253 24.3312 24.3775 25.8687C23.5031 27.4043 21.821 28.8414 19.5206 29.7889Z" fill="#DBBCBC" stroke="#F6D9D9"/>
<path d="M21.8899 30.6802C22.696 33.0147 24.1146 35.0018 25.7304 36.3306C27.3477 37.6606 29.1193 38.3025 30.6905 38.0619C32.2616 37.8213 33.4351 36.7284 34.0176 35.0614C34.5994 33.396 34.5712 31.1959 33.7651 28.8614C32.959 26.5273 31.5414 24.5406 29.9258 23.2118C28.3085 21.8817 26.536 21.24 24.9648 21.4806C23.3937 21.7213 22.2211 22.8141 21.6387 24.481C21.0568 26.1464 21.0839 28.3458 21.8899 30.6802Z" fill="#DBBCBC" stroke="#F6D9D9"/>
<path d="M31.5681 27.3471C29.0001 26.2436 26.9446 24.6782 25.6907 23.0644C24.4246 21.4348 24.044 19.8593 24.5631 18.6513C25.0822 17.4435 26.4872 16.6351 28.5408 16.4321C30.5746 16.2311 33.1248 16.645 35.6929 17.7486C38.2607 18.8521 40.3155 20.4171 41.5694 22.0309C42.8355 23.6605 43.216 25.236 42.6969 26.444C42.1779 27.6519 40.773 28.4602 38.7193 28.6632C36.6856 28.8642 34.136 28.4505 31.5681 27.3471Z" fill="#DBBCBC" stroke="#F6D9D9"/>
<path d="M19.1799 10.6528C21.748 11.7564 23.8035 13.3217 25.0574 14.9355C26.3234 16.5651 26.704 18.1407 26.1849 19.3486C25.6658 20.5565 24.2609 21.3648 22.2073 21.5678C20.1735 21.7688 17.6232 21.3549 15.0552 20.2514C12.4873 19.1478 10.4325 17.5828 9.17865 15.969C7.9125 14.3394 7.53205 12.7639 8.05109 11.556C8.57018 10.348 9.97505 9.53977 12.0287 9.33675C14.0624 9.13575 16.612 9.54939 19.1799 10.6528Z" fill="#DBBCBC" stroke="#F6D9D9"/>
<path d="M32.2489 17.8425C30.4438 22.0429 26.331 24.1001 23.1652 22.7399C19.9995 21.3794 18.6605 16.9794 20.4656 12.7788C22.2708 8.57846 26.3841 6.5223 29.5498 7.8827C32.7153 9.24322 34.0538 13.6421 32.2489 17.8425Z" fill="#DBBCBC" stroke="#F6D9D9"/>
</g>
<defs>
<filter id="filter0_f_54_134" x="0.658918" y="0.662158" width="49.0639" height="44.2281" filterUnits="userSpaceOnUse" color-interpolation-filters="sRGB">
<feFlood flood-opacity="0" result="BackgroundImageFix"/>
<feBlend mode="normal" in="SourceGraphic" in2="BackgroundImageFix" result="shape"/>
<feGaussianBlur stdDeviation="3.15" result="effect1_foregroundBlur_54_134"/>
</filter>
</defs>
</svg>
