<svg width="158" height="168" viewBox="0 0 158 168" fill="none" xmlns="http://www.w3.org/2000/svg">
<g filter="url(#filter0_f_54_213)">
<path d="M52.7412 116.705C44.1124 121.28 35.143 123.15 27.6296 122.497C20.112 121.843 14.1136 118.675 11.2833 113.24C8.45298 107.805 9.27028 101.023 13.0011 94.4054C16.73 87.7912 23.3437 81.3975 31.9725 76.8223C40.6012 72.2472 49.5711 70.3782 57.0845 71.0315C64.6021 71.6853 70.6005 74.8531 73.4308 80.2881C76.261 85.7233 75.4439 92.5049 71.7129 99.1228C67.9841 105.737 61.3699 112.13 52.7412 116.705Z" fill="#C69AA0" stroke="#E1C5C8"/>
<path d="M58.929 118.683C61.0692 127.909 65.5499 135.586 71.038 140.547C76.5294 145.511 82.9795 147.718 89.1025 146.149C95.2254 144.58 99.9844 139.501 102.686 132.439C105.385 125.38 106.001 116.397 103.861 107.172C101.721 97.9464 97.2398 90.2683 91.7517 85.3073C86.2605 80.3437 79.811 78.1363 73.6881 79.7047C67.5651 81.2735 62.8053 86.3527 60.104 93.4154C57.4043 100.474 56.7888 109.458 58.929 118.683Z" fill="#C69AA0" stroke="#E1C5C8"/>
<path d="M94.7045 103.61C85.8905 99.988 79.0023 94.3333 74.9812 88.1433C70.9583 81.9504 69.8308 75.2725 72.4081 69.5369C74.9854 63.8013 80.8273 59.9876 88.2941 58.5165C95.7575 57.0461 104.788 57.9333 113.602 61.5555C122.416 65.1777 129.303 70.8322 133.324 77.0221C137.347 83.2151 138.476 89.8933 135.898 95.6289C133.321 101.364 127.478 105.178 120.011 106.649C112.548 108.119 103.518 107.232 94.7045 103.61Z" fill="#C69AA0" stroke="#E1C5C8"/>
<path d="M57.7749 38.613C66.5889 42.2352 73.4771 47.8899 77.4982 54.0799C81.5211 60.2728 82.6486 66.9507 80.0713 72.6863C77.494 78.4219 71.652 82.2356 64.1853 83.7067C56.7219 85.1771 47.6914 84.2899 38.8774 80.6677C30.0637 77.0456 23.1761 71.391 19.155 65.2011C15.132 59.0081 14.0037 52.33 16.581 46.5943C19.1583 40.8587 25.0011 37.0454 32.4679 35.5743C39.9312 34.104 48.9611 34.9909 57.7749 38.613Z" fill="#C69AA0" stroke="#E1C5C8"/>
<path d="M101.903 64.8606C97.9382 73.6831 91.9751 80.6703 85.5632 84.8438C79.1472 89.0199 72.3414 90.3477 66.6181 87.9958C60.8948 85.6438 57.2183 80.0079 55.9706 72.6824C54.7237 65.3615 55.9194 56.4151 59.8838 47.5925C63.8482 38.77 69.8122 31.7832 76.2241 27.6097C82.6402 23.4337 89.4459 22.1056 95.1692 24.4577C100.892 26.8098 104.569 32.4455 105.817 39.7711C107.064 47.092 105.867 56.0381 101.903 64.8606Z" fill="#C69AA0" stroke="#E1C5C8"/>
</g>
<defs>
<filter id="filter0_f_54_213" x="2.78728" y="16.5068" width="141.298" height="136.937" filterUnits="userSpaceOnUse" color-interpolation-filters="sRGB">
<feFlood flood-opacity="0" result="BackgroundImageFix"/>
<feBlend mode="normal" in="SourceGraphic" in2="BackgroundImageFix" result="shape"/>
<feGaussianBlur stdDeviation="3.15" result="effect1_foregroundBlur_54_213"/>
</filter>
</defs>
</svg>
