<svg width="45" height="46" viewBox="0 0 45 46" fill="none" xmlns="http://www.w3.org/2000/svg">
<path d="M24.4614 1.72428C27.6054 -1.93396 33.5863 0.654619 33.1895 5.50188L32.6646 11.9146C32.4871 14.0823 33.7129 16.1325 35.7008 16.9929L41.5815 19.5381C46.0267 21.462 45.4927 27.984 40.8024 29.0559L34.5972 30.4739C32.4996 30.9533 30.9593 32.7455 30.7818 34.9133L30.2569 41.326C29.86 46.1732 23.5492 47.6155 21.0472 43.4306L17.7371 37.8944C16.6182 36.0229 14.4405 35.0803 12.3429 35.5597L6.1377 36.9777C1.44732 38.0496 -1.9191 32.419 1.22496 28.7608L5.38439 23.9211C6.79046 22.2851 6.98486 19.9103 5.86593 18.0388L2.5559 12.5025C0.0538907 8.31774 4.2842 3.39562 8.72934 5.3195L14.61 7.86471C16.598 8.7251 18.8959 8.19996 20.3019 6.56394L24.4614 1.72428Z" fill="#D5D0CB"/>
</svg>
