<svg width="74" height="62" viewBox="0 0 74 62" fill="none" xmlns="http://www.w3.org/2000/svg">
<path d="M29.3852 15.3394C32.5102 9.04427 41.4898 9.04427 44.6148 15.3393L44.8504 15.8138C46.0493 18.229 48.4411 19.8253 51.1314 20.0061L53.2121 20.1458C59.6039 20.5751 61.9416 28.7751 56.737 32.5104C54.3961 34.1904 53.3612 37.1588 54.1502 39.9301L54.2198 40.1743C55.9411 46.2205 49.6228 51.4097 44.0265 48.5458L40.959 46.976C38.473 45.7038 35.527 45.7038 33.041 46.976L29.9735 48.5458C24.3772 51.4097 18.0589 46.2205 19.7802 40.1743L19.8498 39.9301C20.6388 37.1588 19.6039 34.1904 17.263 32.5104C12.0584 28.7751 14.3961 20.5751 20.7879 20.1458L22.8686 20.006C25.5589 19.8253 27.9507 18.229 29.1496 15.8138L29.3852 15.3394Z" fill="#AEB9A8"/>
<path d="M45.8757 14.9321L42.6869 29.6066L60.5337 40.2361L41.5935 37.325L40.5146 52.7761L31.9977 36.3024L13.4841 35.2223L27.1606 27.9521L16.7975 11.8335L33.7669 23.8139L45.8757 14.9321Z" fill="#66756A"/>
</svg>
